/* XPM */
static char *_549299664232[] = {
/* columns rows colors chars-per-pixel */
"64 64 256 2 ",
"   c #0C0C05",
".  c #0D0E0A",
"X  c #060804",
"o  c #130E04",
"O  c #120E09",
"+  c #1A0D07",
"@  c #0E110B",
"#  c #0E1102",
"$  c #141106",
"%  c #13120C",
"&  c #1B150C",
"*  c #1D190D",
"=  c #1A1608",
"-  c #141411",
";  c #1A1612",
":  c #1D1B14",
">  c #1A1B17",
",  c #0A1111",
"<  c #231C0D",
"1  c #25190B",
"2  c #231D13",
"3  c #261E15",
"4  c #311C09",
"5  c #1E2219",
"6  c #1F230C",
"7  c #2A230D",
"8  c #252114",
"9  c #2B2414",
"0  c #23231B",
"q  c #2B251A",
"w  c #2B2A1C",
"e  c #282919",
"r  c #322514",
"t  c #332C1B",
"y  c #372B19",
"u  c #3A321B",
"i  c #35250D",
"p  c #2C2C22",
"a  c #262926",
"s  c #332D22",
"d  c #332A24",
"f  c #343223",
"g  c #3C3424",
"h  c #33342B",
"j  c #3C3B2C",
"k  c #3A3829",
"l  c #3B3B34",
"z  c #2C302D",
"x  c #1F2322",
"c  c #44361C",
"v  c #462A1A",
"b  c #433523",
"n  c #443B24",
"m  c #4A3C24",
"M  c #433C2A",
"N  c #4A3A29",
"B  c #543B25",
"V  c #433D33",
"C  c #463D36",
"Z  c #472C23",
"A  c #63322B",
"S  c #3C4134",
"D  c #53461D",
"F  c #4B432B",
"G  c #494228",
"H  c #53432C",
"J  c #58482A",
"K  c #4C4433",
"L  c #484738",
"P  c #5B4C33",
"I  c #544A36",
"U  c #5C533C",
"Y  c #58543A",
"T  c #545333",
"R  c #65492B",
"E  c #654B34",
"W  c #675639",
"Q  c #77593A",
"!  c #72502F",
"~  c #6A633C",
"^  c #75643A",
"/  c #353751",
"(  c #433466",
")  c #5A5747",
"_  c #4F5046",
"`  c #665B46",
"'  c #755B48",
"]  c #6F554B",
"[  c #5B654F",
"{  c #64624B",
"}  c #6B6448",
"|  c #756748",
" . c #6A6957",
".. c #776A55",
"X. c #7A7558",
"o. c #757251",
"O. c #797966",
"+. c #6D676E",
"@. c #5B536C",
"#. c #8B3D3C",
"$. c #845C39",
"%. c #8E5A35",
"&. c #86643C",
"*. c #916F3D",
"=. c #A76C3D",
"-. c #8B5449",
";. c #8A6946",
":. c #956C47",
">. c #897647",
",. c #987449",
"<. c #876C54",
"1. c #946D55",
"2. c #857959",
"3. c #997856",
"4. c #A66E44",
"5. c #A8794A",
"6. c #B5784B",
"7. c #A37C54",
"8. c #A97A55",
"9. c #B87B53",
"0. c #AF6A4E",
"q. c #847C65",
"w. c #957962",
"e. c #8F746C",
"r. c #AB7066",
"t. c #B05155",
"y. c #C57B59",
"u. c #C25A5B",
"i. c #7E8268",
"p. c #7E8173",
"a. c #7F825A",
"s. c #8B845A",
"d. c #95865A",
"f. c #998E53",
"g. c #AA8557",
"h. c #B98857",
"j. c #B9925B",
"k. c #B08A4D",
"l. c #B5A85A",
"z. c #898568",
"x. c #968B6A",
"c. c #98926B",
"v. c #898975",
"b. c #978D72",
"n. c #8C9278",
"m. c #999578",
"M. c #8C946F",
"N. c #B78A63",
"B. c #B99464",
"V. c #A49A79",
"C. c #AB8C6D",
"Z. c #AAA27C",
"A. c #B3A775",
"S. c #89A27B",
"D. c #C6895A",
"F. c #C7945B",
"G. c #CC8F58",
"H. c #CBB253",
"J. c #C98B62",
"K. c #C99766",
"L. c #DB9C6C",
"P. c #D59767",
"I. c #D99C71",
"U. c #CC916B",
"Y. c #E29C6C",
"T. c #E79E72",
"R. c #C9A16A",
"E. c #D9A66B",
"W. c #DAA774",
"Q. c #DCB378",
"!. c #CCAF74",
"~. c #E4A96C",
"^. c #E4A473",
"/. c #E2AD75",
"(. c #E5AC79",
"). c #EAA979",
"_. c #E4B274",
"`. c #E5B379",
"'. c #EBB47B",
"]. c #EBBA7C",
"[. c #E8B777",
"{. c #F4BA7D",
"}. c #ECB172",
"|. c #E8BD4A",
" X c #D0C155",
".X c #FBDB59",
"XX c #EFD04F",
"oX c #F9E257",
"OX c #D9CF73",
"+X c #F1D072",
"@X c #FBE879",
"#X c #F7E36D",
"$X c #6E6A8A",
"%X c #595D8D",
"&X c #7482B1",
"*X c #999A83",
"=X c #939799",
"-X c #A49E84",
";X c #B88E80",
":X c #9EA386",
">X c #A7A587",
",X c #B3AB8A",
"<X c #B7B28A",
"1X c #A7A892",
"2X c #AEB296",
"3X c #B6B698",
"4X c #B1AC94",
"5X c #B9B9A3",
"6X c #8E92B3",
"7X c #C3BB96",
"8X c #D0B487",
"9X c #EEBC81",
"0X c #E9B685",
"qX c #F3B984",
"wX c #E9AB8B",
"eX c #C3BDA4",
"rX c #E4AF9D",
"tX c #BCC1A3",
"yX c #BBC89D",
"uX c #C8C29B",
"iX c #D6CA90",
"pX c #EAC585",
"aX c #F4C384",
"sX c #FAC88A",
"dX c #FDCA95",
"fX c #F9D697",
"gX c #EAD58E",
"hX c #FAE886",
"jX c #FAE998",
"kX c #F6ED93",
"lX c #C9C8A7",
"zX c #D5CAA7",
"xX c #DAD5A8",
"cX c #D9D7B6",
"vX c #CCCCB3",
"bX c #E8DAB1",
"nX c #FAF4A8",
"mX c #FAF7B8",
"MX c #F0E7B0",
"NX c #B3C3DC",
"BX c #A3C9ED",
"VX c #D8D5C2",
"CX c #E9E7C8",
"ZX c #FDFDCC",
"AX c #FBF9C7",
"SX c #FCFDD4",
"DX c #FFFDDB",
"FX c #F6F7D7",
"GX c #F2EDCD",
"HX c #D6E6F5",
"JX c #FAFAE7",
"KX c #FEFEF3",
"LX c #FCFCFC",
"PX c #EAEEE2",
"IX c #DFDFC6",
"UX c #B8B5CA",
/* pixels */
"v.O.:XIXp.5 x a.yX:XS S 5 5 S [ n.vX3X<XZ.xXxXf.W NXBXBX@.n H b y _ 6XHXHXHXLXPX_ - @ X @ @ , # , X @ , X = Y n.2X4X>X>X:X>Xm.n.",
"2X*Xp.*X:X[ - x :XIXX.S [ h _ O.4XKXcXuXlXd.s.o._ HXBX@.u N k C @.6X6X6X6XNXNXUXS 5 @ @ @ @ X @ # , @ @ % n.3X1X*XZ.m.n.M.M.z.i.",
"tXtXn.p.i.M.S , x tX3XT [ _ @ S *XKXcXuXm.J ~ W I =Xp.j v u l / $X%X( ( %X$X%X( h > @ . , X , @ . . @ X w tX:X*XV.m.M.z.z.v.o...",
" .tXtX*Xi.i.[ S X S 1X[ S ) } ~ uXJXlX~ T o.F G b C l q r : - ; a +.$X%X%X&X%X@.z > . @ @ , @ @ @ % # @ j tXm.>Xm.n.z.i.a.i...-.",
"_ [ 2X2X:Xp.[ i._ X e [ [ } c.c.uXIX>.T } cX2.T H H t t f 5 0 8 - 3 a z z / / z z : @ @ @ @ @ . @ $ % & k m.o.} } }  .X.X.X.' E ",
"a S [ 1X2Xn.[ a.:XS X e a.f.>.2.~ U J G F 2.{ u y 9 G F w 8 % & ; , , . , X X > z -   @ @ @ @ . % * 9 h j ~ G F T I K W {  .] A ",
"a 5 h L p.p.p. .X.*Xf t 2.>.W u u P J H F u G 9 r g T M < = : > O O O ; x ; , a p % @ @ @ % @ & 2 e f u G m.} G j L K K _ ] E Z ",
"x a a z S O.*XO. . .c.| U n 9 n 2.4XX.c 9 y F K T c b p 8 & $ % . - X O O > a h p > % % % > - 0 t t 9 = F b.X.Y ) I B C ] A v r ",
"x e p a x h  .z.o.o.W F w * u s.iXLXvXf.U G P W F r t t 8 % % - O , O . % % % e e : > > - & e t u 7 < 1 G  .{ G n K I g Z 4 4 b ",
"p 5 5 8 S L T } o.F e 8 * 7 ~ Z.iXLXxXC.W G N o.f 8 9 8 : O @ % . O - O . O # % > a 0 > 5 w t u r 8 * 3 g g 9 3 3 < 3 1 & 3 g b ",
"O.L e S T S T Y G c G p 0 f | ,.7XJXxXl.G G F m 8 = 2 : & @ @ % O O O .   % & % 2 q 8 8 e t t t w 0 3 0 9 * 2 : & & ; 2 3 t s y ",
"M.i.O.T J ~ ) u j Y G 6 * T o.*.c.bX<X^ c c G 8 & % : : : % # . O O . . @ - > - : 8 * 8 9 8 8 0 8 q 9 < $ = 9 q % & $ $ ; 9 & < ",
"z.z.z.z.o.W G w M g u 7 c ~ >.s.>.d.*.^ G n 8 % % % > > > @     X . . . . . O . @ 6 8 8 2 : & * 3 8 = < * $ & 9 t u 9 t 9 3 1 & ",
"z.z.z.2.o.L 9 f G G J ! >.c.c.c.l.!.C.T G t 2 : @ % - % % . X   - ,   . % % O O . @ : 0 q 8 8 8 8 < = 9 8 & = 8 y y r r 3 3 & 1 ",
"z.x.2.W T f 7 W ^ >.f.A.xXxXxX!.A.!.^ w y 9 > % # % % % % .   @ O X O 1 3 9 3 4 3 3 & & * 2 * 2 6 9 g k 2 & * 8 y t < + = $ + & ",
"v.c.f.^ n e n o.k.k.iXMXxXnXxXxXxXc.7 e : 2 - # % & % % % % % - ; 1 d b N N b c R E b &   % ; 2 : 8 8 = O O o 8 9 w 9 3 : & * : ",
"v.z.C.f.K w K f.A.xXMXkXxXxXxXbXOXc 2 e 5 > $ 2 1 i 7 v c J ! K , = N Q ,.j.K.N.j.j.8.&.R i o   , . o o . . % % < 1 1 2 2 3 < + ",
"i.s.A.>.W G L d.zXcXxXzXxXCXfX.Xf.y z e 9 H Q Q &.*.,.d.3.k.K.P @ R ;.,.>.&.K.0XE.W.P.j.K.g.^ c o o % % % - % * % ; : & O % = * ",
"M.X.c.s.o.~ g ~ MXmXMXZXAXAXhXXXD 9 8 D *.j.K.j.j.j.j.*.*.k.j.N W !.wX0XpX8X5.W.]._.~.E.F.k.h.k.;.i X . . % & $ ; ; ; ; : 2 : : ",
"i.p.x.~ T o.G ^ jXAXDXJXJXJXmXl.7 j W k.E.E.P.E.R.j.^ ! N.A.j.K 5.P.W.qX+XfXB.8.0X`.E.R.F.D.D.k.h.g.B       % % % & & = & 1 < 3 ",
"i.z.X.T P ` P >.kXZXJXKXKXKXSX} u W j.E.}.E._._.E.*.^ g.!.N.4.n Q h.E.Q.dXdXQ.,.(.^.W.P.D.h.F.K.k.h.j.! 4 = $ . o $ = = & & : & ",
"a.X.} ~ ..| P f.mXSXSXSXDXJXxXu ! k._._.Q.Q.Q.~.W.:.E g.U.0.%.N | 3.h.R.0XdX0X:.T.L.P.P.6.4.6.J.F.h.G.F.&.c r 7 = $ O O % - % @ ",
"z.X.T ~ o.o.^ f.ZXSXjXhXjXZXA.R h.E._.'.Q.`._.~.W.3.P 1.B.:.:.Y m.w.g.F.0XsX0X:.L.T.L.D.0.4.%.5.G.P.E.E.R.*.R c b y 9 1 o o   O ",
"v.O.W T f.gXjXgXSXnX.XoXXXjX*.k.E.}.[.[.}.|._._.[.7.J ' N.:.*._ F n 1.g.wXfX'.<.I.Y.J.h.9.h.*.4.D.F.}.+X[.E.k.! J R E E B b r 9 ",
"z.i.| l.AXJXSXZXAX#XoXoXoX#XB.E.[._.'.[.[._._.[.[.B.E E g.:.Q K  .[ 2.5.Q.fXwX1.P.P.y.y.y.P.h.9.K./.{.{.+X{.E.=.! ! R $.;.:.&.$.",
"O.a.f.mXDXSXSXAXhX#XoX.XhXgXR.[.[.+X].[.'.`._.[.].!.E J 3.4.! I 2Xp.e.9.qXdXQ.:.G.D.y.Y.P.{.I.6.E.}.'.{.qX{.{.P.:.&.$.$.$.&.,.5.",
"p.*X~ l.nXmXZXAXkXnXnXnXSXgX~.[.9X9X9X].].`.`.}.'.W.-.R ;.8.Q Z a.z.Q g.pXsXj.;.6.6.0.T.'.qX).y.^.^.~.}.qX{.{.).h.*.4.,.,.,.5.g.",
"v.v.o.)  XhXOXAXZXSXJXZXZX X_.].aXaX9X[.'.`._.`.'.0Xg.Q ,.8.3.N T | ;.E.dXW.R t.L.}.y.J.Y.qXwX6.L.L.Y.~.{.).{.).K.6.k.5.5.4.5.7.",
"m.Z.c.s.o.^ H.nXSXSXSXZXmX!.0XpXaXaX9X`.[.(./.`.}.0XU.7.8.8.7.;.C <.B.0XN.R :.{.qXqX0.6.P.T.qXy.P.I.L.L.}.).}.).P.6.k.h.D.6.5.5.",
"z.z.M.m.b.f.#XkXSXZXjX@XgXK.+XsXsXaX].`.[.W./.`.'.0XW.K.N.N.9.8.W d N c ! !.dXaXqX).=.6.y.P.wXy.J.Y.P.P.T.).).T.K.5.k.K.K.j.8.g.",
"l Y Y S K l.@X@XMXAX#XXX Xj.[.sXsXaXqX'.`.W././.'.).^.I.U.J.9.9.3., g 8XdXdXsXfXdXqXD.y.D.J.Y.y.y.I.U.G.Y.).~.P.D.5.6.F.K.h.6.7.",
"j T S h G  XhX@XhXnX.X.X Xg.[.sXaXaXaX[.`./.`.`.'.'.wXI.I.J.D.D.N.; 1.fXfXdXdXdXqXqXU.y.y.J.P.y.0.I.P.D.P.T.Y.P.J.5.8.h.h.k.5.5.",
"L T L e f.hX@XhX@XmXmXnX+Xd.[.{.sXaX].'.[.^./.'.(.(.0X^.I.J.6.9.7.o N K.9XqXdXfXdXqXJ.6.D.P.I.9.0.L.J.G.G.Y.T.P.J.6.5.k.k.=.5.,.",
"f.s.v.f.kXZXnXkXnXZXSXZXxXC.[.+XqXsX9X].`././.(.'.(.).I.J.8.0.6.E = d v H <.I.qXqXqX0.6.P.Y.Y.6.u.J.G.L.P.P.T.T.R.6.5.5.,.,.7.,.",
"mXkXMXnXAXSXmXDXAXDXSXAXgXh.[.{.+XqX9X[.`././.(.(.^.W.U.9.8.5.;.K ' N.8XU.;.! D.).).0.J.T.T.).y.J.D.W.P.P.L.^.~.F.6.5.g.5.,.,.Q ",
"SXnXAXSXZXSXAXZXSXSXZXZXiXj.}.'.qXaXaX[.[./.W.(.(.(.I.N.:.1.:.J ..>X;.N.0XsXg.,.G.J.6.P.).^.'.y.P.P.W.P.E.~./.F.k.4.5.5.,.;.! v ",
"ZXZXAXmXSXFXZXZXmXMXmXSXiX3.+X{.aX+XqXqX`.`.Q.'.9X9XW.1.Q ,.Q Z a.2Xa.-.B.sX0X:.D.U.y.G.P.E.L.4.y.G.E.H.~.L.F.5.:.;.-.! B c i o ",
"ZXmXmXAXAXFXAXjXkXhXjXnXiXW Q.].sXsXaX9X].`.`.9XqXqXR.! ! :.! b S T W %.j.].dXg.J.^.L.G.D.J.k.4.h.F.F.F.F.h.&.R B u r 1 1 o     ",
"kXiXiXnXAXSXnX@XhX@X.X+XH.G B.'.aXfXsXaX].[.'.].aXaXB.P ! 1.! M e 6 B 1.C.0XdXN.D.).L.G.6.6.4.*.9.h.D.j.&.i 1 = + o O . .   @ , ",
"z.z.-XH.+XMXjXhX+X.XXXXXH.f Q K.].dXsXpXpX].].].pXqXB.B E 3.Q b S f P ,.h.`.fXB.D.).~.L.9.4.6.6.D.h.4.R + X X X   O % @   o $ + ",
"L [ z.w.l.@XMX@X+XXXXXXXH.g u >.K.].aXaX_.[.OX0X].aXg.P ! 8.Q c } s.$.3.h.`.dXB.J.0X^.L.D.6.6.G.D.;.y X X O O       .   o O % & ",
"G Y c.2.*.OXmXgX+X X|. XH.M > M >.j.R.W.W._.~./.Q.].B.` ] 7.&.G F ~ Q ,.j.W.fXB.P.wX).I.G.D.F.k.! 4 X @ % O O . . O       + ; O ",
"Y { c.2.W A.bXcXgX XH.H.H.J e a u ' d.N.j.F.R.E.R.W.g.' Q 3.3.J G Q :.,.B.Q.dXh.^.'.}.Y.F.j.,.R o X   & + o % , X   . % O % O O ",
"_ [ M.X.Y G { [ { ~ ^ W *.q.{ p 3 u B W >.3.g.g.g.h.7.Q P &.7.-.N <.;.7.R.W.0X7.qX]./.P.g.! 9 X X % @   $ $           O . % O + ",
"l ) O.o.{ w z f d 8 0 S K X.c.2.l p s u b m H E ! E W H u c E P w c m R Q 7.;.3.j.7.Q b 8 o   $ $ O O % ; & O     X   o % % O $ ",
"L ) q.q. .L l S  .) e a z z j V C p h p 0 e 8 w w 9 q 3 : % + & > 2 p h u r i d 1 1 + . O : 3 1 1 $ & - % % & + o O & $ O o X o ",
"{ o.z.b.X.L L h F X.{ f 0 h L l k ) j 2 0 0 > 5 : > > - - ; > - x > - , - & 2 : ; O % < 3 < 9 w r 3 2 3 q 2 ; & < & 3 : * < < 2 ",
"q.v.c.c.x.Y I L h h L g p z C ) -XGXO.w q 0 0 > : 5 & : 1 ; % % & = 2 3 0 3 1 : 3 y r 8 y r r 9 r y c y 4 < 7 < 1 & < * < 8 & = ",
"O.+.z.b.m...Y ) L G j f p h h k I { l k d a w 8 : : : : : 2 : ; - % = $ * 3 3 w s b ) P y u c u b I N b y u b u < r s P m 1 2 + ",
" . .X.z.m.>XX.U { ) _ l h l V l l L h f d p 0 : > 0 > 3 0 0 2 2 2 $ 3 j M b y t u I H H W H G P P W | 2.c.b.X.U { ] K <.w.B s y ",
" .O.O.O.m.uX<Xs.X.X.` I L l l L V g p p p h 0 p p 0 0 : % % ; : < I b.2X,X>X2.Q c 1 c 2.V.b.^ 2.A.,XxXmXuXZ.m.V.x.o.` 3.U.-.g Z ",
"O.O.O.O.n.c.<X<XZ.z.o.} ` ) ) L V l k g h h 0 p 0 0 5 : 0 : : 2 I } 2.x.,X7Xm.o.P H y W c.>Xc.| Z.7XZ.X.W } 2.V.b.O.} | t.1.A i ",
"O.p.v.v.v.O.>X3X8XV.z.<.o.....{ _ I V V l h z p w 0 8 8 0 2 : 2 % 2 2 2 t g g j P o.U y W b.c.x.| Q G 2.m.W y c <.b...| -.r.] v ",
"i.p.v.v.*Xv.>X,XV.s.z.b.z.2.2...X.} ) _ I L M f s w 8 8 8 0 0 q w q 3 ; & $ + % 7 G m m y c G F n 7 b.SXcXV.z.} b ` | ' -...] #.",
"n.v.v.n.*Xm.1X1Xm. .{ q.b.V.m.b.2.2.o...) _ L l h f w w q 9 t t u y y t w 8 < 8 < 9 y u u 9 r < 9 9 I 2.V.>X<X7XU m ` -.r.] v #.",
"*X*X*Xn.4X:XlX3Xn. .{ ` ..x.>X,XzX>Xb.q...} ) I K M M j f t t k c N M g g t 9 9 w t 7 8 7 < & 3 1 1 r k 9 u V.uXb.J K 1.;X-.Z #.",
"=X*X:X2X3XcXcX,Xn. .)  .{ { m.4XzX7X,XZ.C...] ` Y K K b H J W W W ` J D J b u 9 8 9 y u t q < 1 r r W 2.` i y ..V.z.2.C.4Xr.#.A ",
">X1X4XlXJXJXvX>X:X .[  . .O.n.-XvXeXZ.V.V.V.q.<.} ` E W ' | } ' | W | R J J G m s r < y d < 3 n c u W f.c.<.P i ..<X,Xx.eXr.u.#.",
"3X3XcXJXLXIX2X2X:XM.m.:X4XvXeX3XlX4XV.v.X.b.z.X.} ] _ I G j d b D ` W Q ' J J J H b y 8 = d U I c H c.xXuX7X7X~ u >X<X<.eX;Xu.#.",
"lXcXKXLXPX2X2X2X>XvXMXCXSXJXFXCXeX*X*Xv. .O. .) .. .` ) k h d ) ' H | 1.| ' J J P J c u g M J E ..g <.xXxX7XzX,XH ..lXX.;XrXr.-.",
"CXLXLXJXlX:X2X2X4XIXMXGXJXCXLXPXeX1X1Xp. .O.+._ r.C.e...K C C ..w.N ] 1.! W Q P R J E F c G E A.x.i z.bXxXuX7X7Xx.E lXV.<.rXr.] ",
"KXLXJXvXtX5XvX2X4XbXCXGXCXcXLXJX5X1X=X*X5XvX*X_ C.V.w...N K N ' 1.N ' <.P N J ` J J Q P G 2.V.MXZ.G m.mXxXuX3XA.Z.! ,XvX1XrX*Xe.",
"LXKXvX2X5XIXcX3X3XCXGXCXeXVXKXJXvX5X5XvXSXSX5X_ e.;Xe.] l / V ] 1.L ' 1.E C N I ] J ` H i <XbXxXx.n c.ZXxX,X>XV.3.X.m.*X1XrXrX4X",
"KXVXtX5X3XVXVX3X3XvXcXvX5XPXLXPXvXlXvXGXSXJX5X_ ;XC.w...C C V ..1.N ] 1.) C Z d b I Q E c c.A.<Xs.1 z.SXvX4Xm.z.x.z.v.z.z.e.rXVX"
};
