/* XPM */
static char *_549287677804[] = {
/* columns rows colors chars-per-pixel */
"64 64 26 1 ",
"  c #202020",
". c #2C2C2C",
"X c gray19",
"o c #343434",
"O c gray22",
"+ c #400000",
"@ c #4C0000",
"# c #580000",
"$ c #640000",
"% c #700000",
"& c #7C0000",
"* c gray25",
"= c #484848",
"- c #4C4C4C",
"; c gray33",
": c gray36",
"> c #646464",
", c #880000",
"< c #980000",
"1 c #A40000",
"2 c #B00000",
"3 c #BC0000",
"4 c #C80000",
"5 c #D40000",
"6 c #E00000",
"7 c #EC0000",
/* pixels */
"OO=........O52<&&,%+.==........O31%%,%%+.O=........=3%@,11@%@.=;",
"O=1&$@@+++.;5,11<&<$.=1+++++++.;3%,1%11#.;1+++++++.;31,%%%11@.=;",
"O=31%%,%,+.=52&&11%+.=31%%%%%#.=31<&&,1#.O31,11%1+.=3$1$$1$$@ =;",
"O=341111%+.=5,,1&##+.;3#&#&,%&.=3&&<,&&#.;3,$$,$$@.=31%%1##1@ *;",
"O=3<#&#&,#.=521111%$.*31111%1#.=31<1<1<#.=3%1,1,1@.O3%1,%%%%@ O;",
"O=441111%#.;5&&1&1&+.O3,&&,@@+.;3,%,<,%$.;3<<%%<%@.X31,%1%11@ *;",
"O;4&,&&,@#.O742&2&1$.*3&<1&$1#.O31<<,<<$.=3&&1&&<@  3%%,%,%%@ =;",
"O;41&<1&$# ;77444221=;31111,##.;3%,%1%%$ ;31,&<1&@  3111%111@.=;",
"O=421111,# *;O;===;O;O3,$,$11#.=31,1&11$ O3&11,&1@ X5#%1,%##@.=;",
"O=5,,$,$@# O*==*OO*==;3<1<11@#.=3&&&1&&$ =3,%%<%%@.O511%11%1@.=;",
"OO541111%# *=OO..   O=31,%,@,#.=5,11&11$.=31,1,11@.=5,#%#,##@.;;",
"OO521,%,@# =1+++++++.;3,1<11%# *5&,1&&,$.-3%%%&%%@.=5$11$11$+.O;",
"OO54,111,#.=31%%%%%+.=3&&1&#@# O511,1,1$O;3,1%1,1@.=51$$1$$$+.=;",
"O=5&&&1&#$.;341%11,#.=311%,11# *5$$11,,$=>3<$1$$$@ =755555541==;",
"O=6411%,%$.;3<%1%%%#.=3,%%%@%#.=51,,$11$O:3#1#,1,#.-;;;;;===;=;;",
"O=6%,%%%@$.:341111<#.*3%11,1##O=51111%1$O;3,#1##%#o;O=====OO=O*;",
"O=64%11,,$.>33,%%,%# O3,$$&@1#O;5%%%%1%$.=311<&<<#O;=Oo.....  O;",
"O;62,$$&@$.>3<%1,%@# O311,1%@#O;5111111$.;3#&#&###o;1++++++++ *;",
"O;6211,1%$.:3,1%%1,# *3$,1,%,$.=5&#&1&#$.O31<&<1&#.-3$1%$$,,+ =;",
"O;64$,1,%$.;34,11,%# ;3&$&$#%$ *7111&11$.;5%#1%#1$ =3%$$<%#$@.*;",
"O;72&$&$#$.;3$1&$$%#.=3211,1,$ O45555441==51,#11&$ =311,%,1,@ O;",
"O;741111%$.;34$,11<#.=5<$&$$$$ *;;;>>;;==;5##&###$ =3##,###%@ O;",
"O;711%%<%$.;3&,##,##.*52,111%$ O;=;;;=====51&11&1$.=31,#,%1,@ *;",
"O;7555333,O=3111,#,# *5,<<%%%$ *=OOOOO..O=5$$,$$$$.=3$%,1,$$@ O;",
"O=;O;=====;O3,1,1,,# O52%%<,%$.=1+++++++.O51,$,1,$.=31,$$$,1@ O;",
"O=O===OOOO=;31$,$$%# O51,1,1%$.;3111&1&+.=5$$$1$$$.=3$&11&1&@.*;",
"O==........=3,1&11,# O5,$$$,#$.=3&$&1&$#.O5111$$1$.=31$$$&$$@.=;",
"O=1%##+#++.=31&$&&$# *5211,1,$.;3111,11#.=71,,11%$.;3<<1&$&1@.=;",
"O=51%%%%%+.=3,1&,#<#.=51$&<%%$.O3%,<%%<#.O77555541=O31,$,11$@.=;",
"O=54<&1&%+.=3&&,&&%#.;5511%1<$.;31%%<<%#.;O;===;;;O;3$$1$$@%@.O;",
"O=531<%<,+.=4,111,<#.O5%<&1%%$.=311,,1<#.=;==OOOO===31,111,1@.=;",
"O=5&%%,%@+ =41,$,1%$o;7333%41$.=3$$1$$$#.=OO...  ..=3$1@$@$$@.=;",
"O=5311&1%+ O4<$,$$#$O=77555541==31,,,<,#.=1+++++++.O31&1<&<1@.;;",
"O;5&<&<&,+ O44%11%,$O=;;:>:;;;=;311,1$1# ;31<%&11@ =5&<#&#@$@.=;",
"O;53%,%%%+ =4,1%%,%$o=;==;;=OO=*3$,@$@$# O3%%,%%%@ =51&11,,,@.=;",
"O;5<1%,,,+.=4,$,$#$$o*=O.......O3,,11,,# O3&1,1,1@.;5@@&@%&@@.=;",
"O;53111<%#.=431,1,,$.O1+++++++.O31%#,%## O31&$1$&@.=51%&1&&1@.;;",
"O;5<<%%%@# ;5,,$,$%$.*3%2%#2%+.*3%,1%11# =311,1<<@ *5$$$$1$$+.=;",
"O;53%1,1%# O5$1,$,<$.O34%1%&%@.O31,,,,$#.=3$&#&$%@ O51111$11+.=;",
"O=5&1,%%,# O531,11%$.*321&1&<@.O3111,11#O;311<1,1@ O51%%%1%%+o=;",
"O=531111%# O5&&<&&#$.O3$,$$,%@.*3,%%,,%$O;3$$@<&@@ O511&@11@+o;;",
"O=5,%%<%%# =541,11,$.*32$,,$<@O*31<1<,1$O=31,1#11@.*71&&1@@1+O;;",
"O=53,1,1,#.=52%11#%$o=33,111%@O=5$1%#%%$.=3,<&1&$@.=755555541=;;",
"O=5,1,,%@#.=7%2%%21$O=3,1,$$$@O=51&1&1&$.=31,#,,#@.;===***=;=;;;",
"O=53,111%#.=77555521==32%%1,%@.=511<1<1$ =3&#,##&@ =;=========;;",
"O=5,,3,,%$.==;===;;;O;3,11&1%@.;5%,&&##$ =311,11,@ ;=.........=;",
"OO733,34<$.=;==OO=====32$,$,,@.;51&11&1$ O3$$<$$$@ O1++++++++.=;",
"O=775533<&===O.....OO=3,,$,$%$.;5$11$11$ O31<$1$<@ ;31,&$,<&+.=;",
"O;;;;;;=;=;O1+++++++.O3411&,%$.>51$$<$$$.O3,11,11@.=3&$<1&$,@.=;",
"O=======OOO=31%%%%%+ O32,<11,$.>555555<1==3%#,#%,@O;31,$$11%@.O;",
"O==........O3,1,$1%+ O3,<,&$$$.;;O;O;===;=31,&11,@O>3$$,%,$$@.;;",
"O=1$$+++++ O321111<@.O32,1%1,$.=O========O3&$,&$,@O>31&1&#11@.;;",
"O=51%#%#%+ O3$,$$,#@.=3,1%,#%$.O=O..OOO..O3111111@.;3&###&##@.=;",
"O=54,11%,+ O32$<<$%@.=321111%$.O1+++++++.O3<&$<$&$.=341&11&1@.=;",
"O=5,1%,<%+.O3,,,11<@ O5&,$,$@$.O31%%%%%+.O3&<1&1<$.=3&$1&$$&@.=;",
"O;55%1%%#+.=3<1,&$%@ ;53%1%1%$.=34,1,1%@.=51,$,$,$.=31&&11<&@.=;",
"O=51<11<&+.=3&$&,<<@ O5&&##&#$.O321<&<%@.=511%11%$.=3$<$$,$$@.=;",
"O=5,1<&1%+.=32,1&&%@.;531,1,%$.=32&&<&<@.O5$$,$$,$.;3<$<1$<,@.O;",
"O=55,%<%#+.=3&,$&,&@.=5&<%@@%$.=341111%@.O51,$,1$$.=3$1$$1<$@.O;",
"O=5211,1,$.O3<&<,%@@.O531111%$.;3<<&<&%@.=5,111,1$.;51&1$$$$@.O;",
"O=52&1&1%$.O521,11%@ O52,1,$$$.;321<11<@.O5,$$,$$$.O511&<1&1@.;;",
"O;741&1&1$.O5,,1,$$@.=7,2$2%1<O;31,1&&,@.;511,111$.;5#&##&&#@.O;",
"OO7755433&=O5,11,12@.;77733341=;32&&,,%+.=75555541=O51&&<11<@.;;",
"O;O========;72,%1%%+.;;;O==;===;311,11%+.;O;==O;O;O;5&11&$$&@.O;"
};
